Coordinates
version=1
nRows=17
nColumns=40
inDegrees=yes

Units are S.I. units (second, meters, Newtons, ...)
Angles are in degrees.

endheader
time	pelvis_tilt	pelvis_list	pelvis_rotation	pelvis_tx	pelvis_ty	pelvis_tz	hip_flexion_r	hip_adduction_r	hip_rotation_r	knee_angle_r	knee_angle_r_beta	ankle_angle_r	subtalar_angle_r	mtp_angle_r	hip_flexion_l	hip_adduction_l	hip_rotation_l	knee_angle_l	knee_angle_l_beta	ankle_angle_l	subtalar_angle_l	mtp_angle_l	lumbar_extension	lumbar_bending	lumbar_rotation	arm_flex_r	arm_add_r	arm_rot_r	elbow_flex_r	pro_sup_r	wrist_flex_r	wrist_dev_r	arm_flex_l	arm_add_l	arm_rot_l	elbow_flex_l	pro_sup_l	wrist_flex_l	wrist_dev_l
     37.12750000	     -4.48455216	     -3.67571868	     -7.69520714	      0.96474929	      0.92477113	      0.53757725	     19.76123526	      2.91328505	     -9.52150673	     22.79382615	     22.79382615	      8.74948855	     -1.97100437	     -3.13091303	      2.58713352	     -8.31600988	    -11.39816164	     30.30573080	     30.30573080	     17.13358117	    -12.83416773	     -1.54440894	     -9.84349640	      8.50536907	      0.70678160	     -7.94031162	    -13.89573880	    -17.61073426	     31.99845150	     45.82144887	      0.00000000	      0.00000000	     30.13468797	    -17.43569256	    -10.63741939	     80.24830262	     47.94575511	      0.00000000	      0.00000000
     37.14685714	     -4.48980242	     -3.64428648	     -7.14981935	      0.96554001	      0.92574677	      0.54142408	     18.98995140	      2.91433982	    -10.36784055	     22.35446910	     22.35446910	      9.51053532	     -0.96307178	     -2.45756912	      3.88699748	     -8.79786489	    -10.41559845	     33.12892789	     33.12892789	     15.38478931	    -14.46852119	     -2.66639119	     -9.70665232	      8.42673352	      0.60164164	     -6.56472581	    -14.25698143	    -17.94309715	     30.88114541	     45.92814888	      0.00000000	      0.00000000	     29.34996705	    -17.05336929	    -10.43577241	     79.84689305	     47.93216556	      0.00000000	      0.00000000
     37.16621429	     -4.41002400	     -3.72735950	     -6.60351044	      0.96606972	      0.92669733	      0.54512559	     18.07216619	      3.13157865	    -10.93489260	     21.73747120	     21.73747120	      9.84057068	     -0.68815855	     -2.43365906	      5.25522422	     -9.44506059	     -9.60217822	     36.21194281	     36.21194281	     14.21252099	    -15.47509360	     -2.60980810	     -9.77303301	      8.53211842	      0.82213336	     -5.69910984	    -14.68362185	    -17.99926600	     30.97833111	     45.94001975	      0.00000000	      0.00000000	     28.59289291	    -16.52399910	    -10.17432394	     79.49154214	     47.90506461	      0.00000000	      0.00000000
     37.18557143	     -4.37012263	     -3.83757096	     -6.04550540	      0.96638830	      0.92750245	      0.54857639	     17.18820662	      3.37958394	    -11.53033760	     21.06885282	     21.06885282	     10.15221715	     -0.33180137	     -2.46367833	      6.74194034	    -10.04219093	     -8.69848844	     39.24714793	     39.24714793	     13.08549624	    -16.64065195	     -2.10244236	     -9.77067935	      8.62236230	      0.97501685	     -4.69258302	    -15.15293242	    -18.03707526	     30.96602119	     45.95676354	      0.00000000	      0.00000000	     27.64728660	    -15.96213411	     -9.84962000	     78.89126542	     47.86807826	      0.00000000	      0.00000000
     37.20492857	     -4.25999349	     -3.78386754	     -5.49493094	      0.96655883	      0.92839064	      0.55162311	     16.26971797	      3.41496814	    -12.19639128	     20.42938832	     20.42938832	     10.34583315	      0.19838704	     -2.87751083	      8.29382064	    -10.29026443	     -7.67681334	     42.37883299	     42.37883299	     13.48260678	    -17.34148712	      2.36364413	     -9.70889106	      8.55097353	      0.81842439	     -2.74050951	    -15.59433082	    -18.03126853	     29.19896311	     46.07079270	      0.00000000	      0.00000000	     26.63424287	    -15.62813884	     -9.46134806	     77.25461751	     47.81487884	      0.00000000	      0.00000000
     37.22428571	     -4.17030508	     -3.97548491	     -4.96854270	      0.96653164	      0.92900603	      0.55467995	     15.38210270	      3.80453046	    -12.59707698	     19.78633017	     19.78633017	     10.58829991	      0.21030151	     -2.85139012	      9.73114906	    -10.94506933	     -7.08236809	     45.02848239	     45.02848239	     12.67627334	    -18.08578137	      3.05039846	     -9.77702242	      8.72518676	      1.12310137	     -1.66392450	    -16.08680837	    -18.08103141	     29.33624987	     46.08278711	      0.00000000	      0.00000000	     25.37276863	    -14.85642050	     -9.09693002	     76.68772157	     47.77316369	      0.00000000	      0.00000000
     37.24364286	     -4.08120942	     -4.03885202	     -4.43323605	      0.96624617	      0.92964845	      0.55743521	     14.51050258	      4.08479250	    -12.84747389	     19.07495902	     19.07495902	     10.58240396	     -0.02953694	     -3.20279442	     11.39242314	    -11.24605179	     -6.16874489	     47.84400334	     47.84400334	     14.20913142	    -18.34776148	      9.55558243	     -9.74094080	      8.72736429	      1.05567721	      0.47891145	    -16.46751122	    -18.16741804	     27.67075585	     46.20466509	      0.00000000	      0.00000000	     24.10786290	    -14.40566430	     -8.72532761	     74.63433503	     47.71286791	      0.00000000	      0.00000000
     37.26300000	     -3.92199794	     -4.22043579	     -3.93922653	      0.96589353	      0.93009406	      0.56017787	     13.68677352	      4.45232072	    -13.18386235	     18.62754240	     18.62754240	     10.83631644	     -0.09315708	     -3.18982652	     12.68198730	    -11.86483158	     -5.85647629	     49.79784597	     49.79784597	     13.76010904	    -18.82628120	     10.11004772	     -9.85604096	      8.80641293	      1.22089845	      1.75098889	    -16.89748724	    -18.22240514	     27.97744856	     46.21131800	      0.00000000	      0.00000000	     22.53581857	    -13.67253928	     -8.30406330	     73.64118442	     47.65757460	      0.00000000	      0.00000000
     37.28235714	     -3.75737791	     -4.29104829	     -3.43540464	      0.96526196	      0.93050711	      0.56272301	     12.89857122	      4.77660794	    -13.12324066	     18.15371576	     18.15371576	     10.97748737	     -0.74686440	     -3.20989255	     14.12491821	    -12.19224075	     -5.30618769	     51.72175400	     51.72175400	     15.13531765	    -19.00704283	     15.00477295	     -9.90627107	      8.75801601	      1.05367667	      3.97120715	    -17.12417793	    -18.32070621	     26.82082994	     46.30901684	      0.00000000	      0.00000000	     21.30825022	    -13.27377901	     -7.82135019	     70.44654416	     47.57093031	      0.00000000	      0.00000000
     37.30171429	     -3.64174105	     -4.39804045	     -2.95193200	      0.96442909	      0.93056858	      0.56515169	     12.33086513	      5.06799790	    -13.28061661	     17.98537289	     17.98537289	     11.24308644	     -1.14406316	     -3.14178376	     15.53259189	    -12.59893792	     -4.93383157	     53.14653976	     53.14653976	     15.90840540	    -19.18452904	     17.62045565	     -9.96133549	      8.69757937	      1.16488789	      5.87085694	    -17.33401138	    -18.65715031	     26.26108255	     46.40006623	      0.00000000	      0.00000000	     19.86897798	    -12.60116113	     -7.28730378	     68.00290590	     47.49597635	      0.00000000	      0.00000000
     37.32107143	     -3.48559443	     -4.53358504	     -2.48448938	      0.96339454	      0.93033916	      0.56750262	     11.86938708	      5.37021531	    -13.38019748	     18.06981312	     18.06981312	     11.58086610	     -1.66489959	     -3.10229389	     16.81333654	    -13.05431954	     -4.69163386	     54.09469117	     54.09469117	     16.09424156	    -19.31607378	     18.05611997	    -10.10728987	      8.63353073	      0.97709658	      7.69850255	    -17.40520249	    -18.71216767	     26.84371377	     46.39969044	      0.00000000	      0.00000000	     18.05002744	    -12.24701293	     -6.84787152	     65.84768206	     47.42078898	      0.00000000	      0.00000000
     37.34042857	     -3.29450462	     -4.54338852	     -2.06678257	      0.96211833	      0.92999995	      0.56973637	     11.57125932	      5.54692982	    -13.19067329	     18.48188638	     18.48188638	     12.07278529	     -2.65307008	     -2.66658498	     18.03675267	    -13.25872278	     -4.40326176	     54.71563869	     54.71563869	     16.90206621	    -19.39225091	     20.04287548	    -10.24894832	      8.40372188	      1.20988345	      9.76921450	    -17.50287650	    -18.81872642	     26.35430892	     46.46431576	      0.00000000	      0.00000000	     17.14834185	    -11.49493960	     -6.24755985	     61.43521465	     47.31369668	      0.00000000	      0.00000000
     37.35978571	     -3.12959445	     -4.55423146	     -1.62116370	      0.96063415	      0.92911812	      0.57181072	     11.49990485	      5.64159431	    -13.21470081	     19.25115842	     19.25115842	     12.61276403	     -3.48053532	     -2.66099458	     19.26354679	    -13.44344799	     -4.11949487	     54.98995078	     54.98995078	     17.19333126	    -19.44806276	     20.29133857	    -10.44525077	      8.14049238	      0.88297369	     11.87716284	    -17.29313279	    -18.84460685	     27.20199991	     46.45109227	      0.00000000	      0.00000000	     15.31954568	    -11.25768248	     -5.76534753	     58.70950700	     47.22549469	      0.00000000	      0.00000000
     37.37914286	     -2.90893071	     -4.58049223	     -1.20072352	      0.95894337	      0.92801692	      0.57378373	     11.48935735	      5.77423464	    -13.02705879	     20.21396025	     20.21396025	     13.36193426	     -4.60656367	     -2.03216890	     20.43986220	    -13.56865449	     -3.75119917	     55.04205874	     55.04205874	     17.71670505	    -19.47796132	     21.21214700	    -10.65902298	      7.87680351	      1.10098990	     13.97442415	    -17.26960081	    -18.81217294	     27.33917059	     46.47041952	      0.00000000	      0.00000000	     14.52675189	    -10.57578950	     -5.11200404	     53.74994629	     47.10866301	      0.00000000	      0.00000000
     37.39850000	     -2.71312904	     -4.54962726	     -0.75717392	      0.95708944	      0.92633995	      0.57558471	     11.72912356	      5.75775316	    -13.00602860	     21.58660205	     21.58660205	     14.08207283	     -5.60377473	     -2.15096942	     21.59919969	    -13.61675151	     -3.40917554	     54.80742082	     54.80742082	     17.92218153	    -19.49018566	     21.24916950	    -10.93781771	      7.50629732	      0.84145855	     16.16132687	    -16.95359722	    -18.77015579	     28.43601368	     46.43903868	      0.00000000	      0.00000000	     12.73420228	    -10.37661578	     -4.66430511	     51.12919834	     47.02387085	      0.00000000	      0.00000000
     37.41785714	     -2.50632674	     -4.57452144	     -0.29065856	      0.95513756	      0.92449151	      0.57723628	     11.95991836	      5.84635853	    -12.84952405	     22.94755353	     22.94755353	     15.07854228	     -6.78283339	     -1.13840968	     22.74827422	    -13.66529052	     -2.96660013	     54.38596631	     54.38596631	     18.18730604	    -19.50524391	     21.64096776	    -11.12209035	      7.21969925	      1.11419821	     18.18676613	    -16.89409133	    -18.45722923	     29.12202572	     46.40940766	      0.00000000	      0.00000000	     12.28561680	     -9.74763065	     -3.79775214	     45.34141346	     46.88164747	      0.00000000	      0.00000000
     37.43721429	     -2.25217082	     -4.56577038	      0.19678717	      0.95307601	      0.92220709	      0.57865223	     12.27271951	      5.82077666	    -12.85953983	     24.54468021	     24.54468021	     15.86037339	     -7.87435666	     -1.34208105	     23.84834903	    -13.67475948	     -2.54880562	     53.84262345	     53.84262345	     18.28234908	    -19.50148108	     21.60053913	    -11.47374713	      6.86572988	      0.92734529	     20.48316225	    -16.54647951	    -18.35450286	     30.47333206	     46.36252164	      0.00000000	      0.00000000	     10.42250638	     -9.58778956	     -3.40078535	     43.16120124	     46.80163034	      0.00000000	      0.00000000
